<?xml version="1.0" encoding="UTF-8"?>
<svg width="100pt" height="100pt" version="1.1" viewBox="0 0.02 100.01 99.97" xmlns="http://www.w3.org/2000/svg">
 <path d="m0 50h0.59766l0.45703-0.007812 0.33594-0.007813 0.32422-0.011719 0.40234-0.015625 0.42578-0.019531 0.69141-0.039062 0.40234-0.027344 0.34766-0.027344 0.70312-0.058594 0.41406-0.039062 0.625-0.066406 0.52344-0.0625 0.625-0.082032 0.56641-0.078125 0.53125-0.082031 0.50781-0.082031 0.46094-0.078125 0.45312-0.082032 0.67578-0.13281 0.52734-0.10938 0.47656-0.10547 0.51562-0.11719 0.75391-0.1875 0.49219-0.12891 0.65625-0.17969 0.66016-0.1875 0.62891-0.19141 0.65234-0.20703 0.68359-0.22266 0.51562-0.17969 0.73438-0.26953 0.65625-0.24609 0.92578-0.37109 0.75391-0.31641 0.625-0.26953 0.60547-0.27344 0.63672-0.30078 0.51563-0.25 0.44922-0.22656 0.53516-0.27344 0.51172-0.26953 0.48438-0.26563 0.53125-0.29687 0.48828-0.28125 0.52734-0.3125 0.57422-0.34375 0.53516-0.33594 0.74609-0.48047 0.65625-0.44141 0.78516-0.54688 0.98828-0.71875 0.77734-0.59766 0.66016-0.52344 0.70703-0.57812 0.53125-0.44922 0.30078-0.26172 0.39453-0.34766 0.34375-0.30859 0.41406-0.38281 0.47656-0.44922 0.39453-0.38281 0.58594-0.57812 0.50391-0.51172 0.53906-0.57031 0.52344-0.57031 0.52734-0.58984 0.51562-0.59375 0.51562-0.61719 0.43359-0.53516 0.5625-0.71094 0.66406-0.88281 0.5625-0.78125 0.50781-0.73438 0.46094-0.6875 0.61719-0.96875 0.40234-0.65625 0.46094-0.77734 0.29688-0.51953 0.42969-0.78125 0.30078-0.5625 0.23438-0.45312 0.28516-0.56641 0.32422-0.66797 0.39062-0.83594 0.1875-0.41016 0.34375-0.79297 0.25391-0.60938 0.375-0.94922 0.27344-0.72656 0.26563-0.75391 0.20312-0.59375 0.20703-0.63672 0.18359-0.58594 0.22266-0.75391 0.17188-0.61328 0.20703-0.78906 0.23047-0.9375 0.16406-0.72656 0.125-0.57812 0.10547-0.51953 0.125-0.66797 0.10547-0.59766 0.082031-0.49219 0.085938-0.5625 0.082031-0.59766 0.074219-0.57422 0.050781-0.41406 0.0625-0.59766 0.035156-0.37109 0.035156-0.39062 0.03125-0.37891 0.03125-0.39844 0.027344-0.39844 0.027344-0.44531 0.035156-0.71094 0.015625-0.36719 0.007812-0.36328 0.007813-0.39844 0.011719-0.93359v0.50781l0.011718 0.60156 0.015626 0.59766 0.019531 0.53516 0.019531 0.39844 0.03125 0.51953 0.03125 0.47656 0.042969 0.54688 0.03125 0.39062 0.046875 0.48828 0.046875 0.44531 0.066406 0.56641 0.074219 0.55859 0.082031 0.59766 0.089844 0.58203 0.12109 0.73828 0.11328 0.63672 0.15234 0.78125 0.13281 0.62891 0.15234 0.67969 0.12891 0.53906 0.15625 0.62891 0.20312 0.75781 0.23047 0.81641 0.18359 0.62109 0.23828 0.75781 0.19531 0.58984 0.25391 0.72266 0.28906 0.79688 0.097656 0.25781 0.10938 0.28906 0.15234 0.38281 0.17188 0.43359 0.16016 0.38672 0.17578 0.41016 0.22656 0.51562 0.15625 0.35156 0.16016 0.35547 0.17188 0.36328 0.1875 0.39453 0.16016 0.32812 0.20312 0.41016 0.25781 0.50391 0.25 0.48438 0.22656 0.42187 0.22656 0.41016 0.28906 0.51562 0.19141 0.33203 0.28906 0.49219 0.23438 0.39063 0.28125 0.45703 0.20703 0.33203 0.25 0.39453 0.23828 0.36328 0.26562 0.40234 0.29297 0.42969 0.28125 0.40234 0.25391 0.36328 0.26172 0.36328 0.31641 0.42969 0.34375 0.45703 0.33594 0.4375 0.44141 0.55859 0.35937 0.44141 0.51172 0.60938 0.28906 0.33594 0.33594 0.38672 0.29688 0.33594 0.33984 0.375 0.3125 0.33594 0.32422 0.34375 0.38281 0.39453 0.33203 0.33984 0.36328 0.36328 0.33984 0.32812 0.48828 0.46484 0.44922 0.42188 0.51953 0.47266 0.51562 0.45312 0.49219 0.42188 0.54688 0.45703 0.48828 0.39453 0.58594 0.46094 0.62109 0.47656 0.67969 0.50391 0.48047 0.34375 0.42969 0.30078 0.41016 0.28125 0.44141 0.29688 0.41406 0.27344 0.44531 0.28516 0.57031 0.35938 0.49219 0.29688 0.49609 0.29688 0.48438 0.28125 0.51562 0.28906 0.58594 0.31641 0.69922 0.36719 0.61719 0.3125 0.75781 0.37109 0.85156 0.39453 0.59766 0.26953 0.52734 0.22656 0.70703 0.29297 0.72656 0.28516 0.74219 0.28516 0.29688 0.10938 0.16797 0.058594 0.14062 0.050781 0.88672 0.30859 0.85547 0.28125 0.92969 0.28125 0.74219 0.21484 1.0898 0.29297 0.99609 0.23828 0.94531 0.21484 0.66016 0.13281 0.37891 0.070313 0.41797 0.078124 0.63672 0.10938 0.80078 0.12891 0.58984 0.082031 0.47656 0.0625 0.69922 0.085937 0.72656 0.078126 0.72656 0.066406 0.54688 0.042968 0.61328 0.042969 0.68359 0.035157 0.52734 0.023437 0.53516 0.015625 0.29297 0.003906 0.52344 0.007813h0.53516-0.27734l-0.44141 0.003906-0.44922 0.007813-0.35156 0.011718-0.3125 0.011719-0.45703 0.019531-0.41797 0.019532-0.46875 0.027343-0.36328 0.023438-0.48828 0.039062-0.50781 0.042969-0.61719 0.0625-0.29688 0.03125-0.34766 0.039062-0.29688 0.035157-0.38672 0.050781-0.22266 0.03125-0.38672 0.054688-0.29297 0.042968-0.29297 0.046875-0.40234 0.0625-0.20312 0.03125-0.29297 0.050781-0.23438 0.042969-0.19922 0.035157-0.24219 0.046874-0.35547 0.070313-0.33984 0.066406-0.30078 0.0625-0.29297 0.058594-0.35156 0.082031-0.36328 0.082032-0.1875 0.042968-0.16016 0.039063-0.30078 0.074219-0.35938 0.089843-0.36719 0.09375-0.35937 0.097657-0.3125 0.082031-0.34766 0.097656-0.43359 0.125-0.3125 0.09375-0.42969 0.13281-0.4375 0.14062-0.32031 0.10156-0.30859 0.10156-0.33984 0.11328-0.37891 0.12891-0.15625 0.058594-0.16016 0.054687-0.17188 0.0625-0.33594 0.125-0.30078 0.11328-0.30078 0.11719-0.22266 0.085937-0.24219 0.09375-0.35938 0.14453-0.22656 0.09375-0.28125 0.11719-0.32422 0.13672-0.24609 0.10547-0.30469 0.13281-0.33203 0.15234-0.38281 0.17188-0.39844 0.18359-0.37891 0.18359-0.50781 0.25-0.35547 0.17969-0.39453 0.20312-0.48828 0.25391-0.375 0.20312-0.40625 0.22266-0.30469 0.17187-0.35937 0.20313-0.66406 0.39062-0.6875 0.41406-0.64453 0.40625-0.45312 0.28906-0.67578 0.45312-0.72266 0.5-0.83594 0.60156-0.77344 0.57812-0.13281 0.10547-0.12891 0.097656-0.17578 0.13672-0.54688 0.4375-0.45703 0.37109-0.39844 0.33203-0.34766 0.29688-0.32422 0.28125-0.33984 0.30078-0.37891 0.33984-0.44531 0.40625-0.32812 0.30859-0.33594 0.32031-0.44141 0.42969-0.32031 0.32031-0.45703 0.46484-0.58594 0.62109-0.61719 0.67188-0.60938 0.6875-0.45312 0.53125-0.5 0.59766-0.28125 0.34375-0.28125 0.35156-0.51953 0.67578-0.5 0.66406-0.39453 0.54688-0.40625 0.57812-0.078125 0.10547-0.10547 0.15625-0.15234 0.23047-0.31641 0.47266-0.32031 0.49609-0.19531 0.30859-0.37891 0.60547-0.38281 0.63281-0.35547 0.61328-0.31641 0.55859-0.30078 0.54687-0.35156 0.66016-0.32031 0.62891-0.30859 0.62109-0.32031 0.67578-0.32422 0.70703-0.12891 0.28516-0.15625 0.35937-0.25 0.58984-0.21875 0.53906-0.30859 0.78906-0.23047 0.61328-0.20312 0.55469-0.21875 0.61719-0.24609 0.74219-0.17188 0.54688-0.15625 0.51172-0.14062 0.48438-0.15234 0.54688-0.13281 0.49219-0.16406 0.63672-0.16406 0.67188-0.097656 0.42578-0.078125 0.35156-0.11328 0.54688-0.10938 0.53125-0.10938 0.58203-0.09375 0.53125-0.082031 0.50391-0.10547 0.66797-0.078125 0.5625-0.078125 0.58984-0.0625 0.52344-0.054688 0.48438-0.046874 0.45312-0.046876 0.48828-0.039062 0.49219-0.039062 0.55469-0.035157 0.62109-0.027343 0.60547-0.019532 0.57031-0.007812 0.45312-0.007813 0.76953v0.15625-0.47656l-0.003906-0.39844-0.007813-0.39453-0.007812-0.26172-0.011719-0.375-0.015625-0.38281-0.019531-0.40234-0.019531-0.35938-0.023438-0.37109-0.027344-0.35547-0.027343-0.33594-0.03125-0.38281-0.042969-0.42578-0.035156-0.37109-0.054688-0.48828-0.035156-0.31641-0.058594-0.46875-0.042968-0.30859-0.054688-0.38281-0.058594-0.38672-0.078125-0.50781-0.0625-0.36328-0.070312-0.40234-0.078125-0.42188-0.066406-0.33203-0.0625-0.32422-0.074219-0.34375-0.09375-0.44141-0.0625-0.28906-0.097657-0.42578-0.125-0.51953-0.097656-0.39453-0.12109-0.46875-0.12891-0.48438-0.14453-0.5-0.082031-0.28125-0.13672-0.46484-0.17188-0.55469-0.1875-0.58203-0.18359-0.53906-0.17578-0.50391-0.18359-0.5-0.11328-0.30859-0.21875-0.57031-0.24609-0.61719-0.19531-0.47656-0.27344-0.64453-0.22266-0.50391-0.23438-0.51172-0.17578-0.38281-0.23828-0.49609-0.30469-0.61328-0.25391-0.50391-0.32031-0.60938-0.32031-0.58594-0.28516-0.51562-0.32031-0.55469-0.26562-0.44531-0.39062-0.63672-0.16797-0.26953-0.085937-0.14063-0.18359-0.28516-0.41406-0.63672-0.36719-0.54688-0.32812-0.48047-0.33594-0.47266-0.25391-0.35156-0.18359-0.25-0.28125-0.37109-0.33203-0.4375-0.24219-0.3125-0.28516-0.35938-0.34375-0.42578-0.375-0.44922-0.31641-0.37891-0.34766-0.40625-0.28516-0.32422-0.28906-0.32422-0.37109-0.40625-0.25781-0.27344-0.39062-0.41016-0.38281-0.39844-0.40625-0.40625-0.53906-0.52734-0.3125-0.29688-0.375-0.35547-0.28906-0.26562-0.28516-0.25781-0.32031-0.28906-0.41016-0.35938-0.28516-0.24609-0.35156-0.30078-0.35547-0.29297-0.41797-0.34375-0.36328-0.28516-0.42188-0.32812-0.45703-0.35156-0.35156-0.26562-0.37891-0.27734-0.38281-0.27344-0.42578-0.30469-0.37891-0.25781-0.35156-0.23828-0.35547-0.23438-0.42188-0.27734-0.49609-0.31641-0.36719-0.23047-0.46094-0.28125-0.61719-0.36719-0.67188-0.38281-0.42187-0.23438-0.53906-0.29297-0.45312-0.23828-0.57422-0.29297-0.63281-0.31641-0.59766-0.28906-0.60547-0.27734-0.63281-0.28125-0.72656-0.30859-0.88672-0.36328-0.50781-0.19922-0.67188-0.25391-1.0078-0.35938-0.25391-0.085938-0.625-0.20703-0.51953-0.16406-0.46875-0.14453-0.5625-0.16406-0.5-0.14062-0.89453-0.23828-1.082-0.26563-0.83594-0.18359-0.89062-0.18359-0.45313-0.085937-0.57812-0.10156-0.60547-0.097656-0.62891-0.097657-0.50781-0.070312-0.57812-0.078125-0.55469-0.066406-0.53125-0.054688-0.54688-0.054687-0.70312-0.058594-0.34375-0.027344-0.39063-0.027344-0.5-0.027343-0.46875-0.023438-0.75391-0.027343-0.30469-0.007813-0.53125-0.007813z" fill="#14232f" fill-rule="evenodd"/>
</svg>
